<?xml version="1.0" encoding="UTF-8"?>
<svg width="1200pt" height="1200pt" version="1.1" viewBox="0 0 1200 1200" xmlns="http://www.w3.org/2000/svg">
 <path fill="#146ef6" d="m1143.6 301.2s-37.199-177.6-198-240c-75.602-28.801-213.6-43.199-349.2-44.398-136.8 1.1992-274.8 15.598-350.4 44.398-160.8 62.402-198 240-198 240-24 100.8-31.199 202.8-31.199 292.8 0 91.199 7.1992 193.2 31.199 294 0 0 37.199 177.6 198 240 75.602 28.801 213.6 43.199 349.2 44.398 135.6-1.1992 273.6-14.398 349.2-44.398 160.8-62.398 198-240 198-240 24-100.8 32.398-202.8 31.199-292.8 1.2031-91.199-5.9961-193.2-29.996-294zm-807.6 72h98.398v78h-98.398zm98.398 442.8h-98.398v-78h98.398zm0-186h-98.398v-78h98.398zm444 186h-361.2v-78h361.2zm0-186h-361.2v-78h361.2zm0-178.8h-361.2v-78h361.2z"/>
</svg>
