<?xml version="1.0" encoding="UTF-8"?>
<svg width="1200pt" height="1200pt" version="1.1" viewBox="0 0 1200 1200" xmlns="http://www.w3.org/2000/svg">
 <path fill="#2463EB" d="m1080.4 359.88c-13.68-34.32-33.121-67.199-59.281-100.56-34.32-43.559-78.84-73.559-121.44-100.56-26.16-16.559-55.199-29.641-83.398-42.359l-6.1211-2.7617c-20.52-9.2383-42.238-17.039-64.441-23.281-24.48-6.7188-50.641-10.078-80.16-10.078-18.84 0-39.121 1.3203-61.078 4.0781-43.441 5.3984-88.68 11.281-134.52 17.398l-1.4414 0.23828c-10.078 1.3203-20.52 2.7617-29.641 6.4805-70.441 28.801-159.36 72.602-222.72 155.52-4.3203 5.6406-8.7617 11.16-13.199 16.68-16.559 20.641-33.719 42-42.84 67.922-5.3984 15.48-11.398 30.961-17.281 45.961-10.801 27.961-21.84 56.762-29.879 85.922-9.1211 33.238-13.801 69.359-13.68 104.52 0.23828 40.199 7.0781 81 13.199 117 5.2812 31.199 12.48 66.961 31.199 97.922 4.6797 7.8008 9.4805 15.48 14.281 23.281 13.559 22.078 27.719 44.879 40.078 68.16 4.5586 8.5195 9.8398 16.801 15.121 24.84 11.879 18.359 24.121 37.32 27.84 60.602 0.60156 3.7188 2.8789 8.0391 6.4805 12.121 44.762 50.879 97.078 99 176.04 106.8 16.199 1.5586 32.398 3.9609 48.238 6.2383 46.559 6.8398 94.801 13.922 142.92 0.48047 17.039-4.6797 34.559-8.8789 51.48-12.961 28.078-6.7188 57.238-13.559 84.719-23.281 34.441-12.121 69-29.762 99.84-50.762 29.879-20.398 57.602-45.359 84.359-69.48l13.078-11.762c43.922-39.359 75.84-88.199 94.922-145.2 6.1211-18.238 10.801-37.441 15.359-56.039 4.9219-20.281 10.078-41.16 17.039-61.078 15.84-45 18.961-91.078 22.32-139.8 1.0781-15.121 2.1602-30.84 3.6016-46.559l-3.1211-23.762c-2.8789-22.441-6-45.719-9.4805-69.238-2.0391-13.801-4.5586-23.879-8.0391-32.52zm-61.559 322.44c-3.6016 11.879-6.8398 24.238-9.9609 36.121-6.2383 24.121-12.84 49.199-23.039 72.238-31.801 72-88.922 123.12-135.24 159.6-63.359 49.922-137.64 82.441-227.04 99.238-18.48 3.4805-37.078 4.8008-54.84 4.8008-27.359 0-53.16-3.1211-74.641-6.3594-21.121-3.1211-40.078-5.8789-59.16-7.0781-37.68-2.3984-66.961-22.922-95.16-42.719l-4.5586-3.2383c-24.238-16.922-38.398-37.199-43.441-62.16-1.1992-5.8789-5.0391-11.762-8.8789-17.398l-1.8008-2.7617c-7.9219-12-15.84-24-23.879-35.879-12.84-19.078-26.16-38.879-38.52-58.68-60.238-95.762-78.719-203.04-55.078-318.72 9.9609-48.602 22.199-99.961 51.961-145.56 50.281-77.16 108.12-132.6 176.64-169.56 65.762-35.398 139.2-54 218.28-55.078 58.32-1.4414 106.92 1.4414 154.56 19.559 77.52 29.762 147.12 73.801 206.76 130.92 12.48 12 21.48 27.602 30.238 42.602 3.8398 6.7188 7.9219 13.559 12.121 19.922 30.121 45.84 31.078 97.922 32.16 148.32 0 6 0.23828 12 0.35938 18 1.4414 51.238-7.3203 106.44-27.719 173.64z"/>
 <path fill="#2463EB" d="m860.52 279.84c-4.5586-3.6016-9.7188-6.7188-14.641-9.7188-3-1.8008-6-3.7188-9-5.6406-5.6406-3.7188-11.039-7.6797-16.559-11.762-11.281-8.2812-23.039-16.922-35.641-22.32-30.961-13.199-62.398-23.762-93.359-31.199-15-3.6016-30.961-4.5586-46.441-5.5195-9-0.48047-18.359-1.0781-27.48-2.1602-42-4.9219-76.199-2.2812-107.52 8.6406-29.281 10.199-66.48 25.922-93.602 58.199-19.441 23.039-18.84 49.801 1.4414 71.398 12.961 13.801 25.559 28.32 37.801 42.359l11.398 13.078c11.762 13.441 27.961 15.48 41.16 5.1602 20.762-16.199 45.121-27.121 79.199-35.398 39.602-9.6016 67.32 0 89.879 31.32 14.398 19.922 19.801 35.762 17.281 50.039-2.5195 13.922-12.602 26.281-31.68 39-58.078 38.762-126.12 54.84-190.92 66.48l-4.9219 0.83984c-30.602 5.3984-40.922 7.1992-39 46.199 0.83984 18.961 0.71875 37.801 0.48047 57.719 0 9.1211-0.23828 18.48-0.23828 28.199 1.0781 13.441 2.1602 27.121 3.1211 40.922 2.6406 34.32 5.2812 69.84 9 105.12 1.1992 11.039 4.5586 18.48 10.559 22.441 7.4414 5.0391 18.961 5.1602 35.281 0.35938 33.602-9.7188 66.602-18.84 99.961-24.719 12.602-2.1602 20.281-5.8789 24.121-11.641 3.4805-5.1602 3.9609-12.602 1.5586-22.559-2.6406-11.039-5.3984-21.961-8.1602-33-1.9219-7.3203-3.7188-14.641-5.5195-21.961-2.1602-9-1.6797-15.84 1.6797-21.121 3.6016-5.6406 10.441-9.2383 21.359-11.281 4.9219-0.96094 9.9609-1.9219 15-2.7617 23.281-4.1992 47.398-8.5195 68.398-18.121 32.16-14.641 63.238-33.121 93.359-51 8.1602-4.8008 16.32-9.7188 24.602-14.52 43.078-25.078 69.719-62.16 79.199-110.28 5.6406-28.68 11.281-57.719 11.641-86.281 0.71875-63.961-15.719-105.48-53.039-134.64zm1.8008 144c-5.3984 40.68-13.199 72-24.48 98.281-9.2383 21.48-30.84 39.238-47.398 50.281-69.719 46.801-143.76 73.801-220.08 80.16-11.398 0.96094-20.281 5.2812-25.559 12.359-5.7617 7.6797-7.3203 18.359-4.6797 30.961 3.7188 18.238 7.1992 36.719 10.441 54.719l0.48047 2.7617c1.0781 6.2383 1.8008 13.32-2.1602 18.121-2.8789 3.6016-7.9219 5.5195-15.238 5.7617-8.5195 0.23828-17.16 2.3984-26.398 4.6797-4.4414 1.0781-9.2383 2.2812-14.16 3.2383l-2.8789 0.60156-0.71875-2.8789c-0.48047-2.0391-1.0781-3.9609-1.5586-5.6406-1.0781-3.7188-2.0391-7.1992-2.1602-10.801-1.9219-49.559-3.7188-100.68-5.2812-151.8-0.48047-14.398 4.9219-21.121 19.922-24.84 46.199-11.398 87.84-23.879 127.56-38.16 26.16-9.3594 51-23.762 72.359-36.48 22.559-13.441 39.602-38.281 45.48-66.238 6.1211-29.039-0.12109-58.559-17.641-83.398-19.078-27-38.879-55.078-71.641-63.238-19.68-4.9219-43.441-5.2812-70.441-1.1992-20.641 3.1211-41.16 10.078-61.078 16.801-5.2812 1.8008-10.559 3.6016-15.719 5.2812-9 3-19.801 1.6797-28.199-3.2383-6.9609-4.0781-11.641-10.078-13.078-17.039-1.0781-5.0391 2.7617-10.801 6.2383-15.359 16.922-22.199 42.121-35.52 79.441-41.879 54.602-9.3594 111.6-4.0781 169.44 15.602 45.121 15.359 82.441 45.121 112.92 72.238 23.281 20.762 31.559 49.32 26.16 90.121z"/>
 <path fill="#2463EB" d="m521.4 861.48c-3.6016 0.83984-7.1992 1.6797-10.801 2.3984-8.0391 1.6797-16.441 3.4805-24.121 6.3594-20.879 7.9219-46.199 20.16-55.32 44.879-10.199 27.719-7.8008 54.961 6.9609 76.801 15.961 23.762 44.281 38.039 77.52 39 26.879 0.71875 52.199-12 68.039-34.199 15.719-22.078 18.961-49.559 9.1211-75.359-12.359-32.281-40.441-55.801-71.398-60.121zm10.199 107.88c-4.9219 4.9219-11.398 7.6797-18.238 7.6797h-0.48047c-10.922-0.12109-29.762-18.719-30.48-30.121-0.48047-7.9219 3.3594-17.398 9.9609-24.719 5.7617-6.2383 12.602-9.9609 18.961-10.078h0.48047c15 0 27.84 15.48 28.32 34.078 0.23828 9.1211-2.8789 17.281-8.6406 23.16z"/>
</svg>
