<?xml version="1.0" encoding="UTF-8"?>
<svg width="1200pt" height="1200pt" version="1.1" viewBox="0 0 1200 1200" xmlns="http://www.w3.org/2000/svg">
 <path fill="#2463EB" d="m596.4 504c67.199-45.602 121.2-105.6 166.8-170.4-2.3984 38.398 0 76.801 4.8008 116.4 8.3984 69.602-12 135.6-2.3984 205.2 19.199 140.4-4.8008 278.4-3.6016 418.8 0 27.602 91.199 28.801 92.398 0 3.6016-140.4 31.199-278.4 13.199-418.8-8.3984-66 10.801-129.6 4.8008-195.6-3.6016-32.398-10.801-64.801-8.3984-97.199 0-10.801 2.3984-22.801 3.6016-33.602 8.3984 15.602 16.801 31.199 25.199 46.801 49.199 90 102 169.2 163.2 250.8 20.398 26.398 121.2 12 103.2-12-57.602-74.398-106.8-148.8-153.6-231.6-46.801-84-102-176.4-110.4-273.6-2.3984-32.398-91.199-30-103.2-6-73.199 136.8-146.4 279.61-264 384-25.199 21.602 52.801 27.602 68.398 16.801z"/>
 <path fill="#2463EB" d="m302.4 1077.6c13.199 22.801 85.199 24 98.398 0 63.602-126 146.4-273.6 253.2-367.2 20.398-18-44.398-27.602-58.801-14.398-75.602 64.801-135.6 140.4-190.8 220.8-1.1992-20.398-3.6016-39.602-4.8008-60-1.1992-37.199 1.1992-73.199 1.1992-110.4 1.1992-70.801 0-140.4 4.8008-211.2 4.8008-68.398-8.3984-133.2-8.3984-200.4 0-74.398 8.3984-145.2 10.801-219.6 1.1992-27.602-90-28.801-92.398 0-4.8008 69.598-15.602 136.8-16.801 207.6s12 139.2 6 211.2c-4.8008 67.199-3.6016 133.2-6 200.4-1.1992 50.398-4.8008 103.2-2.3984 154.8-7.1992-9.6016-13.199-19.199-20.398-28.801-21.602-28.801-48-52.801-69.602-80.398-24-31.199-40.801-66-64.801-96-19.199-24-121.2-14.398-102 12 91.199 126 184.8 246 262.8 381.6zm60-102c-2.3984 3.6016-4.8008 6-6 9.6016-1.1992-3.6016-3.6016-6-4.8008-9.6016h10.801z"/>
</svg>
